<mxfile host="app.diagrams.net" modified="2023-03-29T11:11:24.524Z" agent="Mozilla/5.0 (Windows NT 10.0; Win64; x64) AppleWebKit/537.36 (KHTML, like Gecko) Chrome/111.0.0.0 Safari/537.36" etag="-Ob6I-LHSB7Os_daBN_M" version="21.1.1" type="github">
  <diagram id="R2lEEEUBdFMjLlhIrx00" name="Page-1">
    <mxGraphModel dx="1167" dy="748" grid="1" gridSize="10" guides="1" tooltips="1" connect="1" arrows="1" fold="1" page="1" pageScale="1" pageWidth="850" pageHeight="1100" math="0" shadow="0" extFonts="Permanent Marker^https://fonts.googleapis.com/css?family=Permanent+Marker">
      <root>
        <mxCell id="0" />
        <mxCell id="1" parent="0" />
        <mxCell id="_YsLHOqf1_pyC-D_yej0-1" value="Customer" style="whiteSpace=wrap;html=1;align=center;fontSize=16;" vertex="1" parent="1">
          <mxGeometry x="140" y="120" width="100" height="40" as="geometry" />
        </mxCell>
        <mxCell id="_YsLHOqf1_pyC-D_yej0-2" value="customerID" style="ellipse;whiteSpace=wrap;html=1;align=center;fontStyle=4;fontSize=16;" vertex="1" parent="1">
          <mxGeometry x="10" y="120" width="100" height="40" as="geometry" />
        </mxCell>
        <mxCell id="_YsLHOqf1_pyC-D_yej0-3" value="name" style="ellipse;whiteSpace=wrap;html=1;align=center;fontSize=16;" vertex="1" parent="1">
          <mxGeometry x="40" y="60" width="100" height="40" as="geometry" />
        </mxCell>
        <mxCell id="_YsLHOqf1_pyC-D_yej0-4" value="phone" style="ellipse;whiteSpace=wrap;html=1;align=center;fontSize=16;" vertex="1" parent="1">
          <mxGeometry x="140" y="30" width="100" height="40" as="geometry" />
        </mxCell>
        <mxCell id="_YsLHOqf1_pyC-D_yej0-5" value="address" style="ellipse;whiteSpace=wrap;html=1;align=center;fontSize=16;" vertex="1" parent="1">
          <mxGeometry x="250" y="60" width="100" height="40" as="geometry" />
        </mxCell>
        <mxCell id="_YsLHOqf1_pyC-D_yej0-6" value="" style="endArrow=none;html=1;rounded=0;fontSize=12;startSize=8;endSize=8;curved=1;" edge="1" parent="1" source="_YsLHOqf1_pyC-D_yej0-3" target="_YsLHOqf1_pyC-D_yej0-1">
          <mxGeometry width="50" height="50" relative="1" as="geometry">
            <mxPoint x="20" y="250" as="sourcePoint" />
            <mxPoint x="70" y="200" as="targetPoint" />
          </mxGeometry>
        </mxCell>
        <mxCell id="_YsLHOqf1_pyC-D_yej0-7" value="" style="endArrow=none;html=1;rounded=0;fontSize=12;startSize=8;endSize=8;curved=1;" edge="1" parent="1" source="_YsLHOqf1_pyC-D_yej0-4" target="_YsLHOqf1_pyC-D_yej0-1">
          <mxGeometry width="50" height="50" relative="1" as="geometry">
            <mxPoint x="30" y="260" as="sourcePoint" />
            <mxPoint x="80" y="210" as="targetPoint" />
          </mxGeometry>
        </mxCell>
        <mxCell id="_YsLHOqf1_pyC-D_yej0-8" value="" style="endArrow=none;html=1;rounded=0;fontSize=12;startSize=8;endSize=8;curved=1;" edge="1" parent="1" source="_YsLHOqf1_pyC-D_yej0-5" target="_YsLHOqf1_pyC-D_yej0-1">
          <mxGeometry width="50" height="50" relative="1" as="geometry">
            <mxPoint x="40" y="270" as="sourcePoint" />
            <mxPoint x="90" y="220" as="targetPoint" />
          </mxGeometry>
        </mxCell>
        <mxCell id="_YsLHOqf1_pyC-D_yej0-9" value="" style="endArrow=none;html=1;rounded=0;fontSize=12;startSize=8;endSize=8;curved=1;" edge="1" parent="1" source="_YsLHOqf1_pyC-D_yej0-2" target="_YsLHOqf1_pyC-D_yej0-1">
          <mxGeometry width="50" height="50" relative="1" as="geometry">
            <mxPoint x="50" y="280" as="sourcePoint" />
            <mxPoint x="100" y="230" as="targetPoint" />
          </mxGeometry>
        </mxCell>
        <mxCell id="_YsLHOqf1_pyC-D_yej0-10" value="Car" style="whiteSpace=wrap;html=1;align=center;fontSize=16;" vertex="1" parent="1">
          <mxGeometry x="570" y="120" width="100" height="40" as="geometry" />
        </mxCell>
        <mxCell id="_YsLHOqf1_pyC-D_yej0-12" value="licenseNo" style="ellipse;whiteSpace=wrap;html=1;align=center;fontStyle=4;fontSize=16;" vertex="1" parent="1">
          <mxGeometry x="570" y="40" width="100" height="40" as="geometry" />
        </mxCell>
        <mxCell id="_YsLHOqf1_pyC-D_yej0-13" value="model" style="ellipse;whiteSpace=wrap;html=1;align=center;fontSize=16;" vertex="1" parent="1">
          <mxGeometry x="690" y="60" width="100" height="40" as="geometry" />
        </mxCell>
        <mxCell id="_YsLHOqf1_pyC-D_yej0-14" value="year" style="ellipse;whiteSpace=wrap;html=1;align=center;fontSize=16;" vertex="1" parent="1">
          <mxGeometry x="720" y="120" width="100" height="40" as="geometry" />
        </mxCell>
        <mxCell id="_YsLHOqf1_pyC-D_yej0-16" value="Accident" style="whiteSpace=wrap;html=1;align=center;fontSize=16;" vertex="1" parent="1">
          <mxGeometry x="350" y="370" width="100" height="40" as="geometry" />
        </mxCell>
        <mxCell id="_YsLHOqf1_pyC-D_yej0-17" value="" style="endArrow=none;html=1;rounded=0;fontSize=12;startSize=8;endSize=8;curved=1;" edge="1" parent="1" source="_YsLHOqf1_pyC-D_yej0-12" target="_YsLHOqf1_pyC-D_yej0-10">
          <mxGeometry width="50" height="50" relative="1" as="geometry">
            <mxPoint x="560" y="-10" as="sourcePoint" />
            <mxPoint x="604" y="14" as="targetPoint" />
          </mxGeometry>
        </mxCell>
        <mxCell id="_YsLHOqf1_pyC-D_yej0-18" value="" style="endArrow=none;html=1;rounded=0;fontSize=12;startSize=8;endSize=8;curved=1;" edge="1" parent="1" source="_YsLHOqf1_pyC-D_yej0-13" target="_YsLHOqf1_pyC-D_yej0-10">
          <mxGeometry width="50" height="50" relative="1" as="geometry">
            <mxPoint x="570" as="sourcePoint" />
            <mxPoint x="614" y="24" as="targetPoint" />
          </mxGeometry>
        </mxCell>
        <mxCell id="_YsLHOqf1_pyC-D_yej0-19" value="" style="endArrow=none;html=1;rounded=0;fontSize=12;startSize=8;endSize=8;curved=1;" edge="1" parent="1" source="_YsLHOqf1_pyC-D_yej0-14" target="_YsLHOqf1_pyC-D_yej0-10">
          <mxGeometry width="50" height="50" relative="1" as="geometry">
            <mxPoint x="580" y="10" as="sourcePoint" />
            <mxPoint x="624" y="34" as="targetPoint" />
          </mxGeometry>
        </mxCell>
        <mxCell id="_YsLHOqf1_pyC-D_yej0-20" value="reportNo" style="ellipse;whiteSpace=wrap;html=1;align=center;fontStyle=4;fontSize=16;" vertex="1" parent="1">
          <mxGeometry x="240" y="440" width="100" height="40" as="geometry" />
        </mxCell>
        <mxCell id="_YsLHOqf1_pyC-D_yej0-21" value="date" style="ellipse;whiteSpace=wrap;html=1;align=center;fontSize=16;" vertex="1" parent="1">
          <mxGeometry x="350" y="470" width="100" height="40" as="geometry" />
        </mxCell>
        <mxCell id="_YsLHOqf1_pyC-D_yej0-22" value="location" style="ellipse;whiteSpace=wrap;html=1;align=center;fontSize=16;" vertex="1" parent="1">
          <mxGeometry x="460" y="440" width="100" height="40" as="geometry" />
        </mxCell>
        <mxCell id="_YsLHOqf1_pyC-D_yej0-23" value="" style="endArrow=none;html=1;rounded=0;fontSize=12;startSize=8;endSize=8;curved=1;" edge="1" parent="1" source="_YsLHOqf1_pyC-D_yej0-20" target="_YsLHOqf1_pyC-D_yej0-16">
          <mxGeometry width="50" height="50" relative="1" as="geometry">
            <mxPoint x="240" y="330" as="sourcePoint" />
            <mxPoint x="300" y="334" as="targetPoint" />
          </mxGeometry>
        </mxCell>
        <mxCell id="_YsLHOqf1_pyC-D_yej0-24" value="" style="endArrow=none;html=1;rounded=0;fontSize=12;startSize=8;endSize=8;curved=1;" edge="1" parent="1" source="_YsLHOqf1_pyC-D_yej0-16" target="_YsLHOqf1_pyC-D_yej0-22">
          <mxGeometry width="50" height="50" relative="1" as="geometry">
            <mxPoint x="250" y="340" as="sourcePoint" />
            <mxPoint x="310" y="344" as="targetPoint" />
          </mxGeometry>
        </mxCell>
        <mxCell id="_YsLHOqf1_pyC-D_yej0-25" value="" style="endArrow=none;html=1;rounded=0;fontSize=12;startSize=8;endSize=8;curved=1;" edge="1" parent="1" source="_YsLHOqf1_pyC-D_yej0-16" target="_YsLHOqf1_pyC-D_yej0-21">
          <mxGeometry width="50" height="50" relative="1" as="geometry">
            <mxPoint x="260" y="350" as="sourcePoint" />
            <mxPoint x="320" y="354" as="targetPoint" />
          </mxGeometry>
        </mxCell>
        <mxCell id="_YsLHOqf1_pyC-D_yej0-28" value="" style="shape=link;html=1;rounded=0;fontSize=12;startSize=8;endSize=8;curved=1;" edge="1" parent="1" source="_YsLHOqf1_pyC-D_yej0-1" target="_YsLHOqf1_pyC-D_yej0-33">
          <mxGeometry relative="1" as="geometry">
            <mxPoint x="230" y="200" as="sourcePoint" />
            <mxPoint x="360" y="140" as="targetPoint" />
          </mxGeometry>
        </mxCell>
        <mxCell id="_YsLHOqf1_pyC-D_yej0-29" value="M" style="resizable=0;html=1;whiteSpace=wrap;align=right;verticalAlign=bottom;fontSize=16;" connectable="0" vertex="1" parent="_YsLHOqf1_pyC-D_yej0-28">
          <mxGeometry x="1" relative="1" as="geometry">
            <mxPoint x="-40" as="offset" />
          </mxGeometry>
        </mxCell>
        <mxCell id="_YsLHOqf1_pyC-D_yej0-30" value="" style="shape=link;html=1;rounded=0;fontSize=12;startSize=8;endSize=8;curved=1;" edge="1" parent="1" source="_YsLHOqf1_pyC-D_yej0-33" target="_YsLHOqf1_pyC-D_yej0-10">
          <mxGeometry relative="1" as="geometry">
            <mxPoint x="480" y="140" as="sourcePoint" />
            <mxPoint x="560" y="60" as="targetPoint" />
          </mxGeometry>
        </mxCell>
        <mxCell id="_YsLHOqf1_pyC-D_yej0-32" value="N" style="resizable=0;html=1;whiteSpace=wrap;align=right;verticalAlign=bottom;fontSize=16;" connectable="0" vertex="1" parent="_YsLHOqf1_pyC-D_yej0-30">
          <mxGeometry x="1" relative="1" as="geometry">
            <mxPoint x="-40" as="offset" />
          </mxGeometry>
        </mxCell>
        <mxCell id="_YsLHOqf1_pyC-D_yej0-33" value="owns" style="shape=associativeEntity;whiteSpace=wrap;html=1;align=center;fontSize=16;" vertex="1" parent="1">
          <mxGeometry x="340" y="110" width="140" height="60" as="geometry" />
        </mxCell>
        <mxCell id="_YsLHOqf1_pyC-D_yej0-34" value="&lt;font style=&quot;font-size: 13px;&quot;&gt;customerAccident&lt;/font&gt;" style="shape=associativeEntity;whiteSpace=wrap;html=1;align=center;fontSize=16;" vertex="1" parent="1">
          <mxGeometry x="210" y="230" width="140" height="60" as="geometry" />
        </mxCell>
        <mxCell id="_YsLHOqf1_pyC-D_yej0-35" value="" style="endArrow=none;html=1;rounded=0;fontSize=12;startSize=8;endSize=8;curved=1;" edge="1" parent="1" source="_YsLHOqf1_pyC-D_yej0-34" target="_YsLHOqf1_pyC-D_yej0-1">
          <mxGeometry relative="1" as="geometry">
            <mxPoint y="220" as="sourcePoint" />
            <mxPoint x="160" y="220" as="targetPoint" />
          </mxGeometry>
        </mxCell>
        <mxCell id="_YsLHOqf1_pyC-D_yej0-37" value="N" style="resizable=0;html=1;whiteSpace=wrap;align=right;verticalAlign=bottom;fontSize=16;" connectable="0" vertex="1" parent="_YsLHOqf1_pyC-D_yej0-35">
          <mxGeometry x="1" relative="1" as="geometry">
            <mxPoint x="14" y="50" as="offset" />
          </mxGeometry>
        </mxCell>
        <mxCell id="_YsLHOqf1_pyC-D_yej0-38" value="" style="endArrow=none;html=1;rounded=0;fontSize=12;startSize=8;endSize=8;curved=1;" edge="1" parent="1" source="_YsLHOqf1_pyC-D_yej0-34" target="_YsLHOqf1_pyC-D_yej0-16">
          <mxGeometry relative="1" as="geometry">
            <mxPoint x="310" y="260" as="sourcePoint" />
            <mxPoint x="470" y="260" as="targetPoint" />
          </mxGeometry>
        </mxCell>
        <mxCell id="_YsLHOqf1_pyC-D_yej0-39" value="M" style="resizable=0;html=1;whiteSpace=wrap;align=left;verticalAlign=bottom;fontSize=16;" connectable="0" vertex="1" parent="_YsLHOqf1_pyC-D_yej0-38">
          <mxGeometry x="-1" relative="1" as="geometry">
            <mxPoint x="21" y="60" as="offset" />
          </mxGeometry>
        </mxCell>
        <mxCell id="_YsLHOqf1_pyC-D_yej0-41" value="&lt;font style=&quot;font-size: 14px;&quot;&gt;carAccident&lt;/font&gt;" style="shape=associativeEntity;whiteSpace=wrap;html=1;align=center;fontSize=16;" vertex="1" parent="1">
          <mxGeometry x="470" y="230" width="140" height="60" as="geometry" />
        </mxCell>
        <mxCell id="_YsLHOqf1_pyC-D_yej0-42" value="" style="endArrow=none;html=1;rounded=0;fontSize=12;startSize=8;endSize=8;curved=1;" edge="1" parent="1" source="_YsLHOqf1_pyC-D_yej0-16" target="_YsLHOqf1_pyC-D_yej0-41">
          <mxGeometry relative="1" as="geometry">
            <mxPoint x="536.5" y="370" as="sourcePoint" />
            <mxPoint x="483.5" y="300" as="targetPoint" />
          </mxGeometry>
        </mxCell>
        <mxCell id="_YsLHOqf1_pyC-D_yej0-43" value="N" style="resizable=0;html=1;whiteSpace=wrap;align=right;verticalAlign=bottom;fontSize=16;" connectable="0" vertex="1" parent="_YsLHOqf1_pyC-D_yej0-42">
          <mxGeometry x="1" relative="1" as="geometry">
            <mxPoint x="-8" y="50" as="offset" />
          </mxGeometry>
        </mxCell>
        <mxCell id="_YsLHOqf1_pyC-D_yej0-44" value="" style="endArrow=none;html=1;rounded=0;fontSize=12;startSize=8;endSize=8;curved=1;" edge="1" parent="1" source="_YsLHOqf1_pyC-D_yej0-10" target="_YsLHOqf1_pyC-D_yej0-41">
          <mxGeometry relative="1" as="geometry">
            <mxPoint x="616" y="190" as="sourcePoint" />
            <mxPoint x="690" y="270" as="targetPoint" />
          </mxGeometry>
        </mxCell>
        <mxCell id="_YsLHOqf1_pyC-D_yej0-45" value="M" style="resizable=0;html=1;whiteSpace=wrap;align=left;verticalAlign=bottom;fontSize=16;" connectable="0" vertex="1" parent="_YsLHOqf1_pyC-D_yej0-44">
          <mxGeometry x="-1" relative="1" as="geometry">
            <mxPoint x="-17" y="50" as="offset" />
          </mxGeometry>
        </mxCell>
      </root>
    </mxGraphModel>
  </diagram>
</mxfile>
